<?xml version="1.0" standalone="no"?>
<!DOCTYPE svg PUBLIC "-//W3C//DTD SVG 20010904//EN"
 "http://www.w3.org/TR/2001/REC-SVG-20010904/DTD/svg10.dtd">
<svg version="1.0" xmlns="http://www.w3.org/2000/svg"
 width="444.000000pt" height="568.000000pt" viewBox="0 0 444.000000 568.000000"
 preserveAspectRatio="xMidYMid meet">

<g transform="translate(0.000000,568.000000) scale(0.100000,-0.100000)"
fill="#000000" stroke="none">
<path d="M815 4870 c-12 -20 5 -27 77 -33 133 -10 217 -51 249 -121 18 -39 19
-96 19 -1393 0 -929 -3 -1360 -11 -1380 -29 -77 -127 -130 -256 -140 -67 -5
-73 -8 -73 -28 0 -21 3 -22 103 -18 56 1 161 5 232 7 108 3 141 8 199 29 88
33 163 85 231 160 l54 59 40 -31 c59 -47 215 -136 295 -170 199 -83 367 -108
608 -91 577 40 929 259 1029 640 29 112 36 276 15 380 -62 313 -326 555 -709
651 l-88 22 81 48 c268 159 416 332 457 536 32 154 -12 349 -111 487 -139 194
-401 333 -719 380 -88 14 -234 16 -910 16 -526 0 -808 -3 -812 -10z m1510
-191 c194 -60 362 -245 411 -454 12 -51 15 -97 11 -170 -10 -184 -72 -327
-203 -464 -99 -104 -183 -166 -438 -320 -107 -65 -231 -146 -275 -180 l-81
-61 0 769 0 769 53 34 c154 101 351 130 522 77z m310 -1533 c150 -55 276 -188
343 -364 22 -58 26 -83 26 -187 0 -138 -17 -214 -70 -315 -65 -124 -154 -202
-293 -261 -211 -88 -517 -82 -726 15 -87 40 -205 116 -205 131 0 5 7 35 16 65
10 39 17 124 21 290 6 270 4 261 106 356 99 92 377 264 461 285 56 14 266 4
321 -15z"/>
<path d="M1165 949 c-27 -10 -79 -19 -115 -20 -36 -1 -54 -4 -40 -6 14 -3 33
-12 43 -20 15 -15 17 -44 17 -333 0 -342 0 -343 -55 -359 -21 -6 18 -9 125 -9
109 0 146 2 124 9 -17 5 -37 15 -43 23 -9 10 -11 110 -9 375 2 199 3 360 3
360 0 -1 -22 -10 -50 -20z"/>
<path d="M2580 961 c0 -6 -14 -26 -31 -45 -17 -20 -28 -39 -25 -44 7 -12 -92
-284 -108 -297 -7 -5 -11 -15 -9 -21 5 -15 -96 -295 -114 -316 -8 -9 -31 -21
-51 -26 -32 -9 -26 -10 52 -11 86 -1 88 0 66 17 l-21 17 45 128 c59 167 60
167 77 128 14 -30 15 -31 81 -30 42 1 74 -4 86 -12 41 -29 92 -102 109 -156
17 -53 17 -56 -2 -69 -17 -13 -16 -14 16 -14 19 0 79 -3 134 -6 95 -5 98 -4
68 10 -18 8 -38 26 -44 39 -6 13 -68 179 -138 368 l-127 344 -32 3 c-18 2 -32
-1 -32 -7z m39 -345 c34 -93 60 -170 58 -172 -2 -3 -23 20 -47 50 -49 62 -74
76 -132 76 -34 0 -39 3 -33 18 15 37 75 207 75 212 0 21 27 -41 79 -184z"/>
<path d="M4155 949 c-27 -10 -79 -19 -115 -19 -55 -2 -60 -3 -35 -11 55 -16
55 -17 55 -353 0 -175 -4 -317 -10 -326 -5 -8 -24 -20 -42 -27 -28 -10 -10
-11 122 -11 109 0 146 2 124 9 -17 5 -37 15 -43 23 -9 10 -11 112 -9 375 2
199 3 360 3 360 0 -1 -22 -10 -50 -20z"/>
<path d="M200 923 c61 -12 60 -6 60 -352 0 -178 -4 -322 -10 -331 -5 -8 -24
-20 -42 -27 l-33 -11 40 -1 c53 -1 103 14 130 39 l21 20 60 -32 c52 -29 68
-32 134 -32 170 2 259 63 268 183 4 51 0 67 -21 104 -25 43 -104 97 -141 97
-9 0 -16 5 -16 10 0 6 4 10 10 10 16 0 80 62 97 93 20 40 13 105 -17 147 -13
19 -47 44 -79 59 -55 25 -61 26 -271 28 -118 0 -204 -1 -190 -4z m358 -53 c69
-42 88 -141 40 -217 -15 -26 -110 -97 -195 -147 -10 -6 -13 32 -13 174 l0 181
33 14 c46 20 97 18 135 -5z m62 -355 c17 -9 39 -34 51 -57 38 -74 7 -163 -67
-194 -48 -20 -130 -18 -179 6 l-41 20 4 72 c5 82 13 95 81 140 51 32 105 37
151 13z"/>
<path d="M1480 923 c61 -12 60 -6 60 -352 0 -178 -4 -322 -10 -331 -5 -8 -24
-20 -42 -27 -28 -10 -11 -11 117 -11 106 0 141 2 119 9 -52 15 -55 24 -52 185
l3 149 27 -47 c57 -95 138 -135 214 -103 52 21 72 41 101 99 55 109 39 266
-35 348 -70 78 -90 83 -322 85 -113 0 -194 -1 -180 -4z m372 -94 c101 -109 59
-349 -62 -349 -40 0 -65 21 -96 80 -14 27 -19 64 -22 157 -4 118 -3 122 19
133 70 38 111 32 161 -21z"/>
<path d="M3155 920 c55 -17 55 -18 54 -349 0 -168 -4 -315 -8 -325 -4 -11 -23
-25 -42 -32 -31 -11 -25 -12 66 -12 91 0 97 1 66 12 -19 7 -38 21 -42 32 -10
25 -11 594 -1 594 4 -1 113 -144 242 -319 l235 -319 12 43 c7 23 20 48 28 55
21 17 19 28 -10 66 l-25 33 0 244 c0 266 1 269 60 280 14 2 -22 4 -80 5 -72 0
-95 -3 -72 -8 19 -4 38 -12 43 -17 5 -5 8 -102 7 -225 l-3 -216 -170 231 -171
232 -109 2 c-79 1 -102 -1 -80 -7z"/>
</g>
</svg>
